<mxfile host="app.diagrams.net" modified="2023-10-23T09:36:43.181Z" agent="Mozilla/5.0 (X11; Linux x86_64; rv:109.0) Gecko/20100101 Firefox/118.0" etag="7PV_JBxP-UDilM_clwfF" version="22.0.6" type="device">
  <diagram id="OrzwV3mr8MmYFRWI4FPw" name="Page-1">
    <mxGraphModel dx="1728" dy="960" grid="1" gridSize="10" guides="1" tooltips="1" connect="1" arrows="1" fold="1" page="1" pageScale="1" pageWidth="1169" pageHeight="827" math="0" shadow="0">
      <root>
        <mxCell id="0" />
        <mxCell id="1" parent="0" />
        <mxCell id="2qCGcdSfyxWPIkS57CM4-2" value="Brer&lt;br&gt;Controller" style="rounded=1;whiteSpace=wrap;html=1;verticalAlign=middle;align=center;labelBackgroundColor=none;fillColor=#F2CC8F;strokeColor=#E07A5F;fontColor=#393C56;" parent="1" vertex="1">
          <mxGeometry x="240" y="280" width="160" height="80" as="geometry" />
        </mxCell>
        <mxCell id="2qCGcdSfyxWPIkS57CM4-3" value="CouchDB" style="shape=hexagon;perimeter=hexagonPerimeter2;whiteSpace=wrap;html=1;fixedSize=1;labelBackgroundColor=none;fillColor=#F2CC8F;strokeColor=#E07A5F;fontColor=#393C56;" parent="1" vertex="1">
          <mxGeometry x="240" y="40" width="160" height="80" as="geometry" />
        </mxCell>
        <mxCell id="2qCGcdSfyxWPIkS57CM4-16" value="&lt;div&gt;Brer&lt;/div&gt;&lt;div&gt;API&lt;br&gt;&lt;/div&gt;" style="rounded=1;whiteSpace=wrap;html=1;verticalAlign=middle;align=center;labelBackgroundColor=none;fillColor=#F2CC8F;strokeColor=#E07A5F;fontColor=#393C56;" parent="1" vertex="1">
          <mxGeometry x="240" y="520" width="160" height="80" as="geometry" />
        </mxCell>
        <mxCell id="DIRKOhyYY1kB8T5hL4NG-1" value="Kubernetes" style="shape=hexagon;perimeter=hexagonPerimeter2;whiteSpace=wrap;html=1;fixedSize=1;labelBackgroundColor=none;fillColor=#F2CC8F;strokeColor=#E07A5F;fontColor=#393C56;" parent="1" vertex="1">
          <mxGeometry x="600" y="40" width="160" height="80" as="geometry" />
        </mxCell>
        <mxCell id="DIRKOhyYY1kB8T5hL4NG-2" value="Actor" style="shape=umlActor;verticalLabelPosition=bottom;verticalAlign=top;html=1;outlineConnect=0;labelBackgroundColor=none;fillColor=#F2CC8F;strokeColor=#E07A5F;fontColor=#393C56;" parent="1" vertex="1">
          <mxGeometry x="40" y="520" width="40" height="80" as="geometry" />
        </mxCell>
        <mxCell id="DIRKOhyYY1kB8T5hL4NG-5" value="" style="endArrow=classic;html=1;rounded=0;exitX=0.5;exitY=0.5;exitDx=0;exitDy=0;exitPerimeter=0;entryX=0;entryY=0.5;entryDx=0;entryDy=0;labelBackgroundColor=none;fontColor=default;strokeColor=#E07A5F;" parent="1" source="DIRKOhyYY1kB8T5hL4NG-2" target="2qCGcdSfyxWPIkS57CM4-16" edge="1">
          <mxGeometry width="50" height="50" relative="1" as="geometry">
            <mxPoint x="400" y="360" as="sourcePoint" />
            <mxPoint x="450" y="310" as="targetPoint" />
          </mxGeometry>
        </mxCell>
        <mxCell id="DIRKOhyYY1kB8T5hL4NG-6" value="1. Trigger Function" style="edgeLabel;html=1;align=center;verticalAlign=middle;resizable=0;points=[];labelBackgroundColor=none;fontColor=#393C56;" parent="DIRKOhyYY1kB8T5hL4NG-5" vertex="1" connectable="0">
          <mxGeometry x="-0.4111" y="2" relative="1" as="geometry">
            <mxPoint x="37" y="-8" as="offset" />
          </mxGeometry>
        </mxCell>
        <mxCell id="DIRKOhyYY1kB8T5hL4NG-7" value="" style="endArrow=classic;html=1;rounded=0;entryX=0;entryY=0.5;entryDx=0;entryDy=0;exitX=0.25;exitY=0;exitDx=0;exitDy=0;labelBackgroundColor=none;fontColor=default;strokeColor=#E07A5F;" parent="1" source="2qCGcdSfyxWPIkS57CM4-16" target="2qCGcdSfyxWPIkS57CM4-3" edge="1">
          <mxGeometry width="50" height="50" relative="1" as="geometry">
            <mxPoint x="150" y="220" as="sourcePoint" />
            <mxPoint x="200" y="170" as="targetPoint" />
            <Array as="points">
              <mxPoint x="280" y="480" />
              <mxPoint x="200" y="480" />
              <mxPoint x="200" y="80" />
            </Array>
          </mxGeometry>
        </mxCell>
        <mxCell id="DIRKOhyYY1kB8T5hL4NG-8" value="&lt;div&gt;2. Create pending&lt;/div&gt;&lt;div&gt;Invocation&lt;/div&gt;" style="edgeLabel;html=1;align=center;verticalAlign=middle;resizable=0;points=[];labelBackgroundColor=none;fontColor=#393C56;" parent="DIRKOhyYY1kB8T5hL4NG-7" vertex="1" connectable="0">
          <mxGeometry x="-0.3738" y="-2" relative="1" as="geometry">
            <mxPoint x="-2" y="-5" as="offset" />
          </mxGeometry>
        </mxCell>
        <mxCell id="DIRKOhyYY1kB8T5hL4NG-9" value="" style="endArrow=classic;html=1;rounded=0;exitX=0.5;exitY=0;exitDx=0;exitDy=0;entryX=0.5;entryY=1;entryDx=0;entryDy=0;labelBackgroundColor=none;fontColor=default;strokeColor=#E07A5F;" parent="1" source="2qCGcdSfyxWPIkS57CM4-16" target="2qCGcdSfyxWPIkS57CM4-2" edge="1">
          <mxGeometry width="50" height="50" relative="1" as="geometry">
            <mxPoint x="480" y="390" as="sourcePoint" />
            <mxPoint x="530" y="340" as="targetPoint" />
            <Array as="points" />
          </mxGeometry>
        </mxCell>
        <mxCell id="DIRKOhyYY1kB8T5hL4NG-10" value="&lt;div&gt;3. Notify Invocation&lt;/div&gt;&lt;div&gt;creation&lt;/div&gt;" style="edgeLabel;html=1;align=center;verticalAlign=middle;resizable=0;points=[];labelBackgroundColor=none;fontColor=#393C56;" parent="DIRKOhyYY1kB8T5hL4NG-9" vertex="1" connectable="0">
          <mxGeometry x="-0.6667" y="3" relative="1" as="geometry">
            <mxPoint x="3" y="-43" as="offset" />
          </mxGeometry>
        </mxCell>
        <mxCell id="DIRKOhyYY1kB8T5hL4NG-11" value="" style="endArrow=classic;html=1;rounded=0;exitX=0.25;exitY=0;exitDx=0;exitDy=0;entryX=0.375;entryY=1;entryDx=0;entryDy=0;labelBackgroundColor=none;fontColor=default;strokeColor=#E07A5F;" parent="1" source="2qCGcdSfyxWPIkS57CM4-2" target="2qCGcdSfyxWPIkS57CM4-3" edge="1">
          <mxGeometry width="50" height="50" relative="1" as="geometry">
            <mxPoint x="520" y="200" as="sourcePoint" />
            <mxPoint x="570" y="150" as="targetPoint" />
            <Array as="points">
              <mxPoint x="280" y="140" />
              <mxPoint x="300" y="140" />
            </Array>
          </mxGeometry>
        </mxCell>
        <mxCell id="DIRKOhyYY1kB8T5hL4NG-12" value="&lt;div&gt;5. Invocation is initializing&lt;br&gt;9. Invocation is running&lt;/div&gt;&lt;div&gt;14. Invocation is completed&lt;br&gt;&lt;/div&gt;" style="edgeLabel;html=1;align=center;verticalAlign=middle;resizable=0;points=[];labelBackgroundColor=none;fontColor=#393C56;" parent="DIRKOhyYY1kB8T5hL4NG-11" vertex="1" connectable="0">
          <mxGeometry x="0.0355" relative="1" as="geometry">
            <mxPoint y="-7" as="offset" />
          </mxGeometry>
        </mxCell>
        <mxCell id="DIRKOhyYY1kB8T5hL4NG-13" value="" style="endArrow=classic;html=1;rounded=0;exitX=0.5;exitY=0;exitDx=0;exitDy=0;entryX=0;entryY=0.25;entryDx=0;entryDy=0;labelBackgroundColor=none;fontColor=default;strokeColor=#E07A5F;" parent="1" source="2qCGcdSfyxWPIkS57CM4-2" target="DIRKOhyYY1kB8T5hL4NG-1" edge="1">
          <mxGeometry width="50" height="50" relative="1" as="geometry">
            <mxPoint x="740" y="220" as="sourcePoint" />
            <mxPoint x="790" y="170" as="targetPoint" />
            <Array as="points">
              <mxPoint x="320" y="240" />
              <mxPoint x="440" y="240" />
              <mxPoint x="440" y="62" />
            </Array>
          </mxGeometry>
        </mxCell>
        <mxCell id="DIRKOhyYY1kB8T5hL4NG-14" value="4. Create Pod" style="edgeLabel;html=1;align=center;verticalAlign=middle;resizable=0;points=[];labelBackgroundColor=none;fontColor=#393C56;" parent="DIRKOhyYY1kB8T5hL4NG-13" vertex="1" connectable="0">
          <mxGeometry x="0.7" y="-1" relative="1" as="geometry">
            <mxPoint x="-53" y="-11" as="offset" />
          </mxGeometry>
        </mxCell>
        <mxCell id="DIRKOhyYY1kB8T5hL4NG-16" value="" style="endArrow=classic;html=1;rounded=0;exitX=0.375;exitY=1;exitDx=0;exitDy=0;entryX=0.375;entryY=0;entryDx=0;entryDy=0;labelBackgroundColor=none;fontColor=default;strokeColor=#E07A5F;" parent="1" source="DIRKOhyYY1kB8T5hL4NG-1" target="-fUjo__3MVyG3b4Fmbz8-15" edge="1">
          <mxGeometry width="50" height="50" relative="1" as="geometry">
            <mxPoint x="720" y="360" as="sourcePoint" />
            <mxPoint x="680" y="200" as="targetPoint" />
          </mxGeometry>
        </mxCell>
        <mxCell id="-fUjo__3MVyG3b4Fmbz8-16" value="6. Run Pod" style="edgeLabel;html=1;align=center;verticalAlign=middle;resizable=0;points=[];labelBackgroundColor=none;fontColor=#393C56;" parent="DIRKOhyYY1kB8T5hL4NG-16" vertex="1" connectable="0">
          <mxGeometry x="-0.275" y="2" relative="1" as="geometry">
            <mxPoint x="-2" y="-5" as="offset" />
          </mxGeometry>
        </mxCell>
        <mxCell id="DIRKOhyYY1kB8T5hL4NG-18" value="" style="endArrow=classic;html=1;rounded=0;exitX=0;exitY=0.25;exitDx=0;exitDy=0;entryX=1;entryY=0.25;entryDx=0;entryDy=0;labelBackgroundColor=none;fontColor=default;strokeColor=#E07A5F;" parent="1" source="-fUjo__3MVyG3b4Fmbz8-1" target="2qCGcdSfyxWPIkS57CM4-2" edge="1">
          <mxGeometry width="50" height="50" relative="1" as="geometry">
            <mxPoint x="600" y="490" as="sourcePoint" />
            <mxPoint x="650" y="440" as="targetPoint" />
            <Array as="points">
              <mxPoint x="580" y="380" />
              <mxPoint x="580" y="300" />
            </Array>
          </mxGeometry>
        </mxCell>
        <mxCell id="DIRKOhyYY1kB8T5hL4NG-19" value="&lt;div&gt;8. Runtime is ready&lt;br&gt;&lt;/div&gt;" style="edgeLabel;html=1;align=center;verticalAlign=middle;resizable=0;points=[];labelBackgroundColor=none;fontColor=#393C56;" parent="DIRKOhyYY1kB8T5hL4NG-18" vertex="1" connectable="0">
          <mxGeometry x="0.575" relative="1" as="geometry">
            <mxPoint x="21" y="-10" as="offset" />
          </mxGeometry>
        </mxCell>
        <mxCell id="DIRKOhyYY1kB8T5hL4NG-20" value="" style="endArrow=classic;html=1;rounded=0;exitX=0;exitY=0.75;exitDx=0;exitDy=0;entryX=1;entryY=0.75;entryDx=0;entryDy=0;labelBackgroundColor=none;fontColor=default;strokeColor=#E07A5F;" parent="1" source="-fUjo__3MVyG3b4Fmbz8-1" target="2qCGcdSfyxWPIkS57CM4-2" edge="1">
          <mxGeometry width="50" height="50" relative="1" as="geometry">
            <mxPoint x="530" y="480" as="sourcePoint" />
            <mxPoint x="580" y="430" as="targetPoint" />
            <Array as="points">
              <mxPoint x="540" y="420" />
              <mxPoint x="540" y="340" />
            </Array>
          </mxGeometry>
        </mxCell>
        <mxCell id="DIRKOhyYY1kB8T5hL4NG-21" value="13. Invocation done" style="edgeLabel;html=1;align=center;verticalAlign=middle;resizable=0;points=[];labelBackgroundColor=none;fontColor=#393C56;" parent="DIRKOhyYY1kB8T5hL4NG-20" vertex="1" connectable="0">
          <mxGeometry x="0.45" y="-2" relative="1" as="geometry">
            <mxPoint x="3" y="12" as="offset" />
          </mxGeometry>
        </mxCell>
        <mxCell id="-fUjo__3MVyG3b4Fmbz8-1" value="Brer runtime" style="rounded=1;whiteSpace=wrap;html=1;verticalAlign=middle;align=center;labelBackgroundColor=none;fillColor=#F2CC8F;strokeColor=#E07A5F;fontColor=#393C56;" parent="1" vertex="1">
          <mxGeometry x="600" y="360" width="160" height="80" as="geometry" />
        </mxCell>
        <mxCell id="-fUjo__3MVyG3b4Fmbz8-2" value="User code" style="rounded=1;whiteSpace=wrap;html=1;verticalAlign=middle;align=center;labelBackgroundColor=none;fillColor=#F2CC8F;strokeColor=#E07A5F;fontColor=#393C56;" parent="1" vertex="1">
          <mxGeometry x="600" y="520" width="160" height="80" as="geometry" />
        </mxCell>
        <mxCell id="-fUjo__3MVyG3b4Fmbz8-3" value="" style="endArrow=classic;html=1;rounded=0;exitX=0.5;exitY=1;exitDx=0;exitDy=0;entryX=0.5;entryY=0;entryDx=0;entryDy=0;labelBackgroundColor=none;fontColor=default;strokeColor=#E07A5F;" parent="1" source="-fUjo__3MVyG3b4Fmbz8-15" target="-fUjo__3MVyG3b4Fmbz8-1" edge="1">
          <mxGeometry width="50" height="50" relative="1" as="geometry">
            <mxPoint x="680" y="280" as="sourcePoint" />
            <mxPoint x="500" y="490" as="targetPoint" />
          </mxGeometry>
        </mxCell>
        <mxCell id="-fUjo__3MVyG3b4Fmbz8-17" value="7. Spawn process" style="edgeLabel;html=1;align=center;verticalAlign=middle;resizable=0;points=[];labelBackgroundColor=none;fontColor=#393C56;" parent="-fUjo__3MVyG3b4Fmbz8-3" vertex="1" connectable="0">
          <mxGeometry x="-0.5" y="2" relative="1" as="geometry">
            <mxPoint x="-2" y="10" as="offset" />
          </mxGeometry>
        </mxCell>
        <mxCell id="-fUjo__3MVyG3b4Fmbz8-4" value="" style="endArrow=classic;html=1;rounded=0;exitX=0.25;exitY=1;exitDx=0;exitDy=0;entryX=0.25;entryY=0;entryDx=0;entryDy=0;labelBackgroundColor=none;fontColor=default;strokeColor=#E07A5F;" parent="1" source="-fUjo__3MVyG3b4Fmbz8-1" target="-fUjo__3MVyG3b4Fmbz8-2" edge="1">
          <mxGeometry width="50" height="50" relative="1" as="geometry">
            <mxPoint x="880" y="460" as="sourcePoint" />
            <mxPoint x="880" y="540" as="targetPoint" />
          </mxGeometry>
        </mxCell>
        <mxCell id="-fUjo__3MVyG3b4Fmbz8-6" value="10. Fork" style="edgeLabel;html=1;align=center;verticalAlign=middle;resizable=0;points=[];labelBackgroundColor=none;fontColor=#393C56;" parent="-fUjo__3MVyG3b4Fmbz8-4" vertex="1" connectable="0">
          <mxGeometry x="0.35" y="-1" relative="1" as="geometry">
            <mxPoint y="-34" as="offset" />
          </mxGeometry>
        </mxCell>
        <mxCell id="-fUjo__3MVyG3b4Fmbz8-5" value="" style="endArrow=classic;html=1;rounded=0;exitX=0.5;exitY=0;exitDx=0;exitDy=0;entryX=0.5;entryY=1;entryDx=0;entryDy=0;dashed=1;labelBackgroundColor=none;fontColor=default;strokeColor=#E07A5F;" parent="1" source="-fUjo__3MVyG3b4Fmbz8-2" target="-fUjo__3MVyG3b4Fmbz8-1" edge="1">
          <mxGeometry width="50" height="50" relative="1" as="geometry">
            <mxPoint x="650" y="450" as="sourcePoint" />
            <mxPoint x="650" y="530" as="targetPoint" />
            <Array as="points" />
          </mxGeometry>
        </mxCell>
        <mxCell id="-fUjo__3MVyG3b4Fmbz8-7" value="stdout" style="edgeLabel;html=1;align=center;verticalAlign=middle;resizable=0;points=[];labelBackgroundColor=none;fontColor=#393C56;" parent="-fUjo__3MVyG3b4Fmbz8-5" vertex="1" connectable="0">
          <mxGeometry x="0.35" y="1" relative="1" as="geometry">
            <mxPoint x="1" y="14" as="offset" />
          </mxGeometry>
        </mxCell>
        <mxCell id="-fUjo__3MVyG3b4Fmbz8-9" value="" style="endArrow=classic;html=1;rounded=0;exitX=0;exitY=0.5;exitDx=0;exitDy=0;entryX=1;entryY=0.5;entryDx=0;entryDy=0;dashed=1;labelBackgroundColor=none;fontColor=default;strokeColor=#E07A5F;" parent="1" source="-fUjo__3MVyG3b4Fmbz8-1" target="2qCGcdSfyxWPIkS57CM4-2" edge="1">
          <mxGeometry width="50" height="50" relative="1" as="geometry">
            <mxPoint x="520" y="590" as="sourcePoint" />
            <mxPoint x="520" y="670" as="targetPoint" />
            <Array as="points">
              <mxPoint x="560" y="400" />
              <mxPoint x="560" y="320" />
            </Array>
          </mxGeometry>
        </mxCell>
        <mxCell id="-fUjo__3MVyG3b4Fmbz8-10" value="log" style="edgeLabel;html=1;align=center;verticalAlign=middle;resizable=0;points=[];labelBackgroundColor=none;fontColor=#393C56;" parent="-fUjo__3MVyG3b4Fmbz8-9" vertex="1" connectable="0">
          <mxGeometry x="0.0929" y="3" relative="1" as="geometry">
            <mxPoint x="-39" y="-3" as="offset" />
          </mxGeometry>
        </mxCell>
        <mxCell id="-fUjo__3MVyG3b4Fmbz8-11" value="" style="endArrow=classic;html=1;rounded=0;exitX=0.75;exitY=0;exitDx=0;exitDy=0;entryX=0.75;entryY=1;entryDx=0;entryDy=0;labelBackgroundColor=none;fontColor=default;strokeColor=#E07A5F;" parent="1" source="-fUjo__3MVyG3b4Fmbz8-2" target="-fUjo__3MVyG3b4Fmbz8-1" edge="1">
          <mxGeometry width="50" height="50" relative="1" as="geometry">
            <mxPoint x="650" y="450" as="sourcePoint" />
            <mxPoint x="650" y="530" as="targetPoint" />
          </mxGeometry>
        </mxCell>
        <mxCell id="-fUjo__3MVyG3b4Fmbz8-14" value="12. Exit" style="edgeLabel;html=1;align=center;verticalAlign=middle;resizable=0;points=[];labelBackgroundColor=none;fontColor=#393C56;" parent="-fUjo__3MVyG3b4Fmbz8-11" vertex="1" connectable="0">
          <mxGeometry x="-0.35" y="-1" relative="1" as="geometry">
            <mxPoint x="-1" y="6" as="offset" />
          </mxGeometry>
        </mxCell>
        <mxCell id="-fUjo__3MVyG3b4Fmbz8-15" value="Pod" style="shape=hexagon;perimeter=hexagonPerimeter2;whiteSpace=wrap;html=1;fixedSize=1;labelBackgroundColor=none;fillColor=#F2CC8F;strokeColor=#E07A5F;fontColor=#393C56;" parent="1" vertex="1">
          <mxGeometry x="600" y="200" width="160" height="80" as="geometry" />
        </mxCell>
        <mxCell id="-fUjo__3MVyG3b4Fmbz8-18" value="" style="endArrow=classic;html=1;rounded=0;exitX=0;exitY=0.5;exitDx=0;exitDy=0;entryX=0.75;entryY=1;entryDx=0;entryDy=0;labelBackgroundColor=none;fontColor=default;strokeColor=#E07A5F;" parent="1" source="-fUjo__3MVyG3b4Fmbz8-2" target="2qCGcdSfyxWPIkS57CM4-2" edge="1">
          <mxGeometry width="50" height="50" relative="1" as="geometry">
            <mxPoint x="490" y="590" as="sourcePoint" />
            <mxPoint x="490" y="510" as="targetPoint" />
            <Array as="points">
              <mxPoint x="440" y="560" />
              <mxPoint x="440" y="400" />
              <mxPoint x="360" y="400" />
            </Array>
          </mxGeometry>
        </mxCell>
        <mxCell id="-fUjo__3MVyG3b4Fmbz8-20" value="11. Download payload" style="edgeLabel;html=1;align=center;verticalAlign=middle;resizable=0;points=[];labelBackgroundColor=none;fontColor=#393C56;" parent="-fUjo__3MVyG3b4Fmbz8-18" vertex="1" connectable="0">
          <mxGeometry x="-0.4636" relative="1" as="geometry">
            <mxPoint x="28" y="-10" as="offset" />
          </mxGeometry>
        </mxCell>
        <mxCell id="MPnDXJBQsgqtxO2Z_wAL-1" value="" style="endArrow=classic;html=1;rounded=0;exitX=0.75;exitY=0;exitDx=0;exitDy=0;entryX=0;entryY=0.75;entryDx=0;entryDy=0;labelBackgroundColor=none;fontColor=default;strokeColor=#E07A5F;" edge="1" parent="1" source="2qCGcdSfyxWPIkS57CM4-2" target="DIRKOhyYY1kB8T5hL4NG-1">
          <mxGeometry width="50" height="50" relative="1" as="geometry">
            <mxPoint x="330" y="290" as="sourcePoint" />
            <mxPoint x="619" y="72" as="targetPoint" />
            <Array as="points">
              <mxPoint x="360" y="260" />
              <mxPoint x="480" y="260" />
              <mxPoint x="480" y="98" />
            </Array>
          </mxGeometry>
        </mxCell>
        <mxCell id="MPnDXJBQsgqtxO2Z_wAL-2" value="15. Delete Pod" style="edgeLabel;html=1;align=center;verticalAlign=middle;resizable=0;points=[];labelBackgroundColor=none;fontColor=#393C56;" vertex="1" connectable="0" parent="MPnDXJBQsgqtxO2Z_wAL-1">
          <mxGeometry x="0.7" y="-1" relative="1" as="geometry">
            <mxPoint x="-25" y="-11" as="offset" />
          </mxGeometry>
        </mxCell>
        <mxCell id="MPnDXJBQsgqtxO2Z_wAL-5" value="" style="endArrow=classic;html=1;rounded=0;exitX=0.625;exitY=1;exitDx=0;exitDy=0;entryX=0.625;entryY=0;entryDx=0;entryDy=0;labelBackgroundColor=none;fontColor=default;strokeColor=#E07A5F;" edge="1" parent="1" source="DIRKOhyYY1kB8T5hL4NG-1" target="-fUjo__3MVyG3b4Fmbz8-15">
          <mxGeometry width="50" height="50" relative="1" as="geometry">
            <mxPoint x="670" y="130" as="sourcePoint" />
            <mxPoint x="670" y="170" as="targetPoint" />
          </mxGeometry>
        </mxCell>
        <mxCell id="MPnDXJBQsgqtxO2Z_wAL-6" value="16. Kill Pod" style="edgeLabel;html=1;align=center;verticalAlign=middle;resizable=0;points=[];labelBackgroundColor=none;fontColor=#393C56;" vertex="1" connectable="0" parent="MPnDXJBQsgqtxO2Z_wAL-5">
          <mxGeometry x="-0.275" y="2" relative="1" as="geometry">
            <mxPoint x="-1" y="15" as="offset" />
          </mxGeometry>
        </mxCell>
      </root>
    </mxGraphModel>
  </diagram>
</mxfile>
